<svg preserveAspectRatio="none" width="100%" height="100%" overflow="visible" style="display: block;" viewBox="0 0 225 51" fill="none" xmlns="http://www.w3.org/2000/svg">
<g id="Group 33">
<g id="Group 1">
<path id="Vector" d="M7.44049 43.2098C8.00142 42.695 8.54652 42.1938 9.09161 41.6926C18.5591 51.0845 33.5718 50.1722 42.1378 40.9934C50.2638 32.2863 50.4107 18.7404 42.3437 9.83169C34.2386 0.881943 21.0764 -0.136235 11.82 6.61802C6.33662 10.6194 3.10279 16.0408 2.38992 22.8117C1.68065 29.5508 3.6846 35.5 8.10295 40.6572C7.55786 41.1562 7.01925 41.6487 6.48136 42.1412C-0.617812 34.7144 -3.16686 20.4088 5.46822 9.5631C14.6923 -2.02066 31.4008 -3.02732 41.9549 6.2515C52.7221 15.7183 53.6812 32.5938 43.2316 43.1184C33.2341 53.1878 17.1103 52.8904 7.44049 43.2098Z" fill="var(--fill-0, #FF6F15)"/>
<path id="Vector_2" d="M12.0139 13.8048C11.62 13.3742 11.2477 12.9681 10.838 12.5209C13.2294 9.84084 16.1068 7.92186 19.5357 6.89504C24.7411 5.33681 29.796 5.77245 34.5744 8.3935C44.7295 13.9632 47.4478 26.9195 41.2854 36.0471C34.9891 45.3734 22.3246 47.1995 13.7053 40.6894C4.66198 33.8588 3.82885 21.3569 10.0639 13.4707C10.4528 13.8934 10.8387 14.3125 11.2355 14.7438C7.82596 19.5373 6.84739 24.7708 8.52155 30.4118C9.78455 34.6674 12.407 37.9466 16.1723 40.2804C23.8122 45.0148 33.9299 43.031 39.3693 35.7605C44.7735 28.5375 43.7726 18.3218 37.0464 12.2819C33.4064 9.01276 29.1127 7.49486 24.2349 7.78216C19.3528 8.07019 15.3082 10.1548 12.0124 13.8041L12.0139 13.8048Z" fill="var(--fill-0, #FF6F15)"/>
<path id="Vector_3" d="M34.4956 16.585C34.78 16.2819 35.0493 15.9946 35.3186 15.7065C40.0725 20.5029 40.7047 29.0307 35.5368 34.6667C30.2565 40.4258 21.0612 40.6778 15.4972 35.1462C10.2011 29.8804 10.0139 21.1171 15.2791 15.6655C20.6918 10.0605 29.3154 10.2369 34.4466 14.8676C34.173 15.1614 33.8986 15.4559 33.6163 15.7591C30.6677 13.2619 27.279 12.2444 23.4756 12.7737C20.2799 13.218 17.6358 14.7388 15.5671 17.2122C11.1689 22.4723 11.8846 30.0892 16.6904 34.5565C21.5314 39.0569 29.0813 39.0447 33.8921 34.563C38.8577 29.9365 39.4734 22.046 34.4956 16.5843V16.585Z" fill="var(--fill-0, #FF6F15)"/>
</g>
<g id="SOVRa">
<path d="M84.9892 16.1595C84.7737 14.3397 83.8997 12.927 82.3673 11.9213C80.8348 10.9156 78.9551 10.4128 76.7283 10.4128C75.1 10.4128 73.6753 10.6762 72.4542 11.2029C71.2449 11.7297 70.2991 12.4541 69.6167 13.3759C68.9463 14.2978 68.611 15.3454 68.611 16.5187C68.611 17.5004 68.8445 18.3445 69.3114 19.0508C69.7903 19.7452 70.4009 20.3259 71.1432 20.7928C71.8855 21.2477 72.6637 21.6249 73.4778 21.9242C74.2919 22.2115 75.0402 22.445 75.7226 22.6246L79.458 23.6302C80.4158 23.8817 81.4813 24.2289 82.6546 24.6718C83.8399 25.1148 84.9713 25.7194 86.0488 26.4857C87.1382 27.2399 88.0362 28.2097 88.7425 29.3949C89.4489 30.5802 89.8021 32.0348 89.8021 33.7589C89.8021 35.7463 89.2813 37.5421 88.2397 39.1464C87.2101 40.7507 85.7016 42.0258 83.7142 42.9716C81.7387 43.9174 79.3383 44.3903 76.5128 44.3903C73.8789 44.3903 71.5981 43.9653 69.6706 43.1153C67.755 42.2652 66.2465 41.08 65.145 39.5595C64.0555 38.039 63.439 36.2731 63.2953 34.2617H67.8927C68.0124 35.6505 68.4793 36.7998 69.2935 37.7097C70.1195 38.6077 71.1611 39.2781 72.4182 39.7211C73.6873 40.1521 75.0522 40.3676 76.5128 40.3676C78.2129 40.3676 79.7393 40.0922 81.0922 39.5415C82.4451 38.9788 83.5166 38.2006 84.3068 37.2069C85.097 36.2012 85.492 35.0279 85.492 33.687C85.492 32.4658 85.1508 31.4721 84.4684 30.7059C83.786 29.9397 82.8881 29.3171 81.7746 28.8382C80.6612 28.3593 79.458 27.9403 78.165 27.5811L73.6394 26.2881C70.7661 25.462 68.4913 24.2827 66.8152 22.7503C65.139 21.2178 64.301 19.2125 64.301 16.7342C64.301 14.6749 64.8577 12.8791 65.9711 11.3466C67.0965 9.80218 68.605 8.60495 70.4967 7.75491C72.4003 6.8929 74.5254 6.4619 76.872 6.4619C79.2425 6.4619 81.3496 6.88691 83.1934 7.73695C85.0371 8.57501 86.4977 9.72436 87.5752 11.185C88.6647 12.6456 89.2394 14.3038 89.2993 16.1595H84.9892Z" fill="var(--fill-0, black)"/>
<path d="M128.157 25.3543C128.157 29.2333 127.457 32.5856 126.056 35.411C124.655 38.2365 122.734 40.4155 120.291 41.9479C117.849 43.4804 115.059 44.2466 111.923 44.2466C108.786 44.2466 105.996 43.4804 103.554 41.9479C101.111 40.4155 99.1899 38.2365 97.7891 35.411C96.3884 32.5856 95.688 29.2333 95.688 25.3543C95.688 21.4752 96.3884 18.123 97.7891 15.2975C99.1899 12.472 101.111 10.293 103.554 8.76059C105.996 7.22813 108.786 6.4619 111.923 6.4619C115.059 6.4619 117.849 7.22813 120.291 8.76059C122.734 10.293 124.655 12.472 126.056 15.2975C127.457 18.123 128.157 21.4752 128.157 25.3543ZM123.847 25.3543C123.847 22.1696 123.314 19.4818 122.249 17.2909C121.195 15.0999 119.764 13.4418 117.957 12.3164C116.161 11.191 114.149 10.6283 111.923 10.6283C109.696 10.6283 107.678 11.191 105.87 12.3164C104.075 13.4418 102.644 15.0999 101.578 17.2909C100.525 19.4818 99.998 22.1696 99.998 25.3543C99.998 28.5389 100.525 31.2267 101.578 33.4176C102.644 35.6086 104.075 37.2668 105.87 38.3922C107.678 39.5176 109.696 40.0803 111.923 40.0803C114.149 40.0803 116.161 39.5176 117.957 38.3922C119.764 37.2668 121.195 35.6086 122.249 33.4176C123.314 31.2267 123.847 28.5389 123.847 25.3543Z" fill="var(--fill-0, black)"/>
<path d="M135.426 6.96473L146.345 37.9252H146.776L157.694 6.96473H162.364L148.859 43.7438H144.261L130.757 6.96473H135.426Z" fill="var(--fill-0, black)"/>
<path d="M168.092 43.7438V6.96473H180.52C183.393 6.96473 185.752 7.4556 187.595 8.43733C189.439 9.40709 190.804 10.742 191.69 12.4421C192.576 14.1422 193.019 16.0757 193.019 18.2427C193.019 20.4097 192.576 22.3312 191.69 24.0074C190.804 25.6835 189.445 27.0005 187.613 27.9583C185.781 28.9041 183.441 29.377 180.591 29.377H170.535V25.3543H180.448C182.411 25.3543 183.992 25.0669 185.189 24.4923C186.398 23.9176 187.272 23.1035 187.811 22.0499C188.362 20.9844 188.637 19.7153 188.637 18.2427C188.637 16.7701 188.362 15.4831 187.811 14.3816C187.26 13.2802 186.38 12.4301 185.171 11.8315C183.962 11.2209 182.363 10.9156 180.376 10.9156H172.546V43.7438H168.092ZM185.404 27.222L194.455 43.7438H189.283L180.376 27.222H185.404Z" fill="var(--fill-0, black)"/>
<path d="M207.983 44.3903C206.235 44.3903 204.648 44.0611 203.224 43.4026C201.799 42.7321 200.668 41.7684 199.83 40.5113C198.991 39.2422 198.572 37.7097 198.572 35.9139C198.572 34.3335 198.884 33.0525 199.506 32.0708C200.129 31.0771 200.961 30.2988 202.002 29.7361C203.044 29.1734 204.193 28.7544 205.451 28.4791C206.72 28.1917 207.995 27.9642 209.276 27.7966C210.952 27.5811 212.311 27.4195 213.352 27.3117C214.406 27.192 215.172 26.9945 215.651 26.7191C216.142 26.4438 216.387 25.9649 216.387 25.2824V25.1388C216.387 23.3669 215.902 21.99 214.933 21.0083C213.975 20.0266 212.52 19.5357 210.569 19.5357C208.545 19.5357 206.959 19.9787 205.81 20.8646C204.66 21.7506 203.852 22.6964 203.385 23.7021L199.363 22.2654C200.081 20.5893 201.039 19.2843 202.236 18.3504C203.445 17.4046 204.762 16.7461 206.187 16.375C207.624 15.9919 209.036 15.8003 210.425 15.8003C211.311 15.8003 212.329 15.9081 213.478 16.1236C214.639 16.3271 215.759 16.7521 216.836 17.3986C217.926 18.0451 218.83 19.0209 219.548 20.3259C220.266 21.6309 220.625 23.3788 220.625 25.5698V43.7438H216.387V40.0084H216.172C215.884 40.607 215.406 41.2476 214.735 41.93C214.065 42.6124 213.173 43.1931 212.059 43.672C210.946 44.1509 209.587 44.3903 207.983 44.3903ZM208.629 40.5831C210.305 40.5831 211.718 40.2539 212.867 39.5954C214.029 38.9369 214.903 38.0869 215.489 37.0453C216.088 36.0037 216.387 34.9082 216.387 33.7589V29.8798C216.208 30.0953 215.813 30.2929 215.202 30.4724C214.603 30.6401 213.909 30.7897 213.119 30.9214C212.341 31.0411 211.58 31.1489 210.838 31.2447C210.108 31.3285 209.515 31.4003 209.06 31.4602C207.959 31.6038 206.929 31.8373 205.971 32.1606C205.026 32.4718 204.259 32.9447 203.673 33.5793C203.098 34.2018 202.811 35.0519 202.811 36.1294C202.811 37.602 203.355 38.7154 204.445 39.4697C205.546 40.212 206.941 40.5831 208.629 40.5831Z" fill="var(--fill-0, black)"/>
</g>
<rect id="Rectangle 1" x="197.769" y="6.69858" width="27.0088" height="3.86581" fill="var(--fill-0, #FF6F15)"/>
</g>
</svg>
