<svg preserveAspectRatio="none" width="100%" height="100%" overflow="visible" style="display: block;" viewBox="0 0 36 36" fill="none" xmlns="http://www.w3.org/2000/svg">
<g id="profile-circle">
<path id="Vector" d="M18.18 19.17C18.075 19.155 17.94 19.155 17.82 19.17C15.18 19.08 13.08 16.92 13.08 14.265C13.08 11.55 15.27 9.345 18 9.345C20.715 9.345 22.92 11.55 22.92 14.265C22.905 16.92 20.82 19.08 18.18 19.17Z" stroke="var(--stroke-0, #292D32)" stroke-width="1.5" stroke-linecap="round" stroke-linejoin="round"/>
<path id="Vector_2" d="M28.11 29.07C25.44 31.515 21.9 33 18 33C14.1 33 10.56 31.515 7.89 29.07C8.04 27.66 8.94 26.28 10.545 25.2C14.655 22.47 21.375 22.47 25.455 25.2C27.06 26.28 27.96 27.66 28.11 29.07Z" stroke="var(--stroke-0, #292D32)" stroke-width="1.5" stroke-linecap="round" stroke-linejoin="round"/>
<path id="Vector_3" d="M18 33C26.2843 33 33 26.2843 33 18C33 9.71573 26.2843 3 18 3C9.71573 3 3 9.71573 3 18C3 26.2843 9.71573 33 18 33Z" stroke="var(--stroke-0, #292D32)" stroke-width="1.5" stroke-linecap="round" stroke-linejoin="round"/>
<g id="Vector_4" opacity="0">
</g>
</g>
</svg>
